<?xml version="1.0" encoding="UTF-8"?>
<svg width="256px" height="256px" viewBox="0 0 256 256" version="1.1" xmlns="http://www.w3.org/2000/svg" xmlns:xlink="http://www.w3.org/1999/xlink">
    <!-- Generator: Sketch 60 (88103) - https://sketch.com -->
    <title>Companies/SC/Small/Footlocker</title>
    <desc>Created with Sketch.</desc>
    <g id="Companies/SC/Small/Footlocker" stroke="none" stroke-width="1" fill="none" fill-rule="evenodd">
        <g id="Foot_Locker_logo" transform="translate(53.000000, 66.000000)">
            <path d="M11.6157442,64.6214111 C11.6157442,64.6214111 3.01113512,70.9553195 3.01113512,70.9553195 C3.01113512,70.9553195 0.261331865,75.7361965 0.261331865,75.7361965 C0.261331865,75.7361965 0.0824446969,83.265362 0.0824446969,83.265362 C0.0824446969,83.265362 4.68413154,92.8269644 4.68413154,92.8269644 C4.68413154,92.8269644 12.3938504,100.595908 12.3938504,100.595908 C12.3938504,100.595908 40.4795902,117.6273 40.4795902,117.6273 C40.4795902,117.6273 40.8981043,118.40586 40.8981043,118.40586 C40.8981043,118.40586 38.5684814,125.278096 38.5684814,125.278096 C38.5684814,125.278096 103.466504,125.278096 103.466504,125.278096 C103.466504,125.278096 103.646755,122.407722 103.646755,122.407722 C103.646755,122.407722 106.574688,121.512529 106.574688,121.512529 C106.574688,121.512529 139.204555,102.030338 139.204555,102.030338 C139.204555,102.030338 149.960506,91.0335486 149.960506,91.0335486 C149.960506,91.0335486 149.124386,85.1187603 149.124386,85.1187603 C149.124386,85.1187603 141.296369,74.0632001 141.296369,74.0632001 C141.296369,74.0632001 132.50954,66.3536327 132.50954,66.3536327 C132.50954,66.3536327 130.001182,63.3063405 130.001182,63.3063405 C130.001182,63.3063405 118.527259,55.3586609 118.527259,55.3586609 C118.527259,55.3586609 104.722198,48.9640126 104.722198,48.9640126 C102.690973,48.0070193 100.120511,47.0513892 96.7745185,46.1549842 C96.7745185,46.1549842 93.4285257,44.7201001 93.4285257,44.7201001 C94.6842197,43.7646215 95.3991625,42.5102907 95.4582361,40.9555931 C95.5188245,39.999963 95.3400888,38.9837445 94.6842197,37.8477126 C94.6842197,37.8477126 96.354944,35.339051 96.354944,35.339051 C96.354944,35.339051 95.7581486,32.0522833 95.7581486,32.0522833 C95.7581486,32.0522833 97.7303001,29.482882 97.7303001,29.482882 C97.7303001,29.482882 98.2695366,28.34685 98.2695366,28.34685 C98.2695366,28.34685 97.1335046,25.0599308 97.1335046,25.0599308 C97.1335046,25.0599308 94.6842197,23.1473074 94.6842197,23.1473074 C94.6236313,21.2348354 94.2040568,18.9050611 93.2482753,16.0960327 C93.2482753,16.0960327 94.8614407,12.0326735 94.8614407,12.0326735 C94.8614407,12.0326735 94.8614407,10.1791237 94.8614407,10.1791237 C94.2040568,6.7133174 93.4285257,4.62180681 92.5318178,3.96502885 C92.5318178,3.96502885 90.4400042,2.17221893 90.4400042,2.17221893 C90.4400042,2.17221893 85.8383174,2.29051773 85.8383174,2.29051773 C83.8661659,1.3350391 81.4759546,0.61752131 78.7259999,0.379409008 C78.7259999,0.379409008 74.7232291,0.798074658 74.7232291,0.798074658 C74.7232291,0.798074658 71.6745737,1.57466611 71.6745737,1.57466611 C71.6745737,1.57466611 67.0136617,2.05240543 67.0136617,2.05240543 C66.3568838,2.05240543 65.7591795,2.29051773 65.3406653,2.82899688 C65.3406653,2.82899688 62.8303376,4.80069397 62.8303376,4.80069397 C62.8303376,4.80069397 58.6471649,7.07139468 58.6471649,7.07139468 C58.6471649,7.07139468 58.0496121,8.08761315 58.0496121,8.08761315 C57.2730207,9.70138443 56.1975771,10.776828 54.8826579,11.4349692 C54.8826579,11.4349692 54.0453266,12.5104128 54.0453266,12.5104128 C54.0453266,12.5104128 51.5957387,19.1431734 51.5957387,19.1431734 C51.5957387,19.1431734 55.7790629,35.0401989 55.7790629,35.0401989 C55.7790629,35.0401989 60.3201613,41.3742588 60.3201613,41.3742588 C60.3201613,41.3742588 60.7979007,41.8519981 60.7979007,41.8519981 C60.7979007,41.8519981 57.5718728,44.541213 57.5718728,44.541213 C57.5718728,44.541213 45.440869,46.1549842 45.440869,46.1549842 C45.440869,46.1549842 44.2456119,46.4538364 44.2456119,46.4538364 C44.2456119,46.4538364 27.6918084,55.0598087 27.6918084,55.0598087 C27.6918084,55.0598087 11.6157442,64.6214111 11.6157442,64.6214111 Z M33.1900517,83.4457639 C33.1900517,83.4457639 36.7756715,79.6206685 36.7756715,79.6206685 C36.7756715,79.6206685 38.5684814,79.0229642 38.5684814,79.0229642 C38.5684814,79.0229642 39.4648864,85.3583873 39.4648864,85.3583873 C39.4648864,85.3583873 41.9750626,95.6367502 41.9750626,95.6367502 C41.9750626,95.6367502 41.8552491,98.7434189 41.8552491,98.7434189 C41.8552491,98.7434189 37.7903753,95.9366626 37.7903753,95.9366626 C37.7903753,95.9366626 33.9666431,91.8121092 33.9666431,91.8121092 C33.9666431,91.8121092 30.1413963,84.5212075 30.1413963,84.5212075 C30.1413963,84.5212075 33.1900517,83.4457639 33.1900517,83.4457639 Z M108.546839,100.238437 C108.546839,100.238437 106.574688,101.612278 106.574688,101.612278 C106.574688,101.612278 110.93705,83.4457639 110.93705,83.4457639 C110.93705,83.4457639 117.271565,86.5536444 117.271565,86.5536444 C117.271565,86.5536444 119.842026,89.2413446 119.842026,89.2413446 C119.842026,89.2413446 108.546839,100.238437 108.546839,100.238437 Z" id="path14" fill="#FFFFFF"></path>
            <path d="M125.399495,76.1548621 C125.399495,76.1548621 121.037132,82.4295454 121.037132,82.4295454 C121.037132,82.4295454 127.729118,89.2413446 127.729118,89.2413446 C127.729118,89.2413446 107.471396,107.707469 107.471396,107.707469 C107.471396,107.707469 101.794265,108.364852 101.794265,108.364852 C101.794265,108.364852 101.733677,113.623923 101.733677,113.623923 C108.368103,109.979532 114.642029,105.856494 120.856882,101.433543 C125.99629,97.846711 130.778227,93.9629964 135.260252,89.7205986 C135.260252,89.7205986 135.737386,87.4485347 135.737386,87.4485347 C135.737386,87.4485347 127.132322,76.3337493 127.132322,76.3337493 C127.132322,76.3337493 125.399495,76.1548621 125.399495,76.1548621 Z M107.769793,79.4416298 C107.769793,79.4416298 107.410807,83.2061369 107.410807,83.2061369 C107.410807,83.2061369 104.24355,99.102405 104.24355,99.102405 C104.24355,99.102405 101.733677,106.632025 101.733677,106.632025 C104.722198,105.376331 107.410807,103.705607 109.861607,101.672867 C114.881353,97.7876374 119.484555,93.5464513 123.905991,88.9424924 C120.020762,86.1349788 116.017385,83.5642141 111.833758,81.1146263 C110.638653,80.3971085 109.264811,79.8602955 107.769793,79.4416298 Z M41.4958086,74.4818657 C39.3450729,75.2584572 37.2534108,76.2139358 35.2815623,77.1710806 C32.2936467,78.844077 29.3648048,80.5761471 26.4965513,82.4295454 C26.4965513,82.4295454 25.9582236,83.265362 25.9582236,83.265362 C27.6918084,86.732683 29.7834705,89.9602256 32.1130934,93.0072148 C34.9221217,96.4122813 37.9707771,99.4613911 41.2575449,102.210589 C41.2575449,102.210589 43.4084321,102.030338 43.4084321,102.030338 C43.4084321,102.030338 45.0222033,101.612278 45.0222033,101.612278 C45.0222033,101.612278 42.9305413,84.7593198 42.9305413,84.7593198 C42.452802,81.6529539 42.2131749,78.4254114 41.9750626,75.0794185 C41.9750626,75.0794185 41.4958086,74.4818657 41.4958086,74.4818657 Z M104.902449,73.3458338 C104.184476,72.6890558 103.82549,72.867943 103.82549,73.8235731 C103.82549,73.8235731 103.878742,78.6039601 103.885398,79.2015085 L103.885221,79.2742665 C103.851107,79.7387001 102.810635,93.9039227 102.810635,93.9039227 C102.810635,93.9039227 104.482874,86.8509818 104.482874,86.8509818 C104.482874,86.8509818 105.558318,76.752415 105.558318,76.752415 C105.499244,74.959605 105.200846,73.8235731 104.902449,73.3458338 Z M104.482874,67.967404 C104.482874,67.967404 108.546839,74.4818657 108.546839,74.4818657 C108.546839,74.4818657 116.256709,78.4254114 116.256709,78.4254114 C116.256709,78.4254114 117.750213,77.3499678 117.750213,77.3499678 C117.750213,77.3499678 116.853505,75.7361965 116.853505,75.7361965 C116.853505,75.7361965 104.482874,67.967404 104.482874,67.967404 Z M95.4582361,76.512788 L83.9252395,76.512788 L83.9252395,76.512788 L83.9252395,77.3499678 L83.9252395,77.3499678 L95.4582361,77.3499678 L95.4582361,77.3499678 L95.4582361,76.512788 L95.4582361,76.512788 Z M43.3492069,67.1302242 C43.3492069,67.1302242 40.8390307,67.3698512 40.8390307,67.3698512 C40.8390307,67.3698512 31.0378012,75.0794185 31.0378012,75.0794185 C31.0378012,75.0794185 30.6798754,76.1548621 30.6798754,76.1548621 C30.6798754,76.1548621 31.2774282,77.1103408 31.2774282,77.1103408 C31.2774282,77.1103408 31.8749811,76.1548621 31.8749811,76.1548621 C31.8749811,76.1548621 42.2234654,70.0909456 42.9496748,69.6654076 L42.9897664,69.6419151 C42.9897664,69.6419151 43.5873192,68.5649568 43.5873192,68.5649568 C43.5873192,68.5649568 43.3492069,67.1302242 43.3492069,67.1302242 Z M95.4582361,74.0026117 L83.9252395,74.0026117 L83.9252395,74.0026117 L83.9252395,75.0794185 L83.9252395,75.0794185 L95.4582361,75.0794185 L95.4582361,75.0794185 L95.4582361,74.0026117 L95.4582361,74.0026117 Z M102.869709,61.0357913 C102.869709,61.0357913 103.466504,63.3655657 103.466504,63.3655657 C103.466504,63.3655657 105.379582,64.8595235 105.379582,64.8595235 L105.379582,64.8595235 L107.172998,64.8595235 C107.172998,64.8595235 118.527259,71.9124643 118.527259,71.9124643 C118.527259,71.9124643 120.619072,72.33113 120.619072,72.33113 C120.619072,72.33113 120.797808,71.2541717 120.797808,71.2541717 C120.797808,71.2541717 108.248441,63.3655657 108.248441,63.3655657 C106.574688,62.4099356 104.782787,61.6334956 102.869709,61.0357913 Z M95.0416911,57.2697696 C95.0416911,57.2697696 92.5318178,58.9442807 92.5318178,58.9442807 C92.5318178,58.9442807 92.171317,72.33113 92.171317,72.33113 L92.171317,72.33113 L94.6236313,72.33113 C94.6236313,72.33113 95.0416911,57.2697696 95.0416911,57.2697696 Z M85.6595817,56.433953 C85.6595817,56.433953 85.0612715,56.6129916 85.0612715,56.6129916 C85.0612715,56.6129916 83.9252395,72.1505766 83.9252395,72.1505766 L83.9252395,72.1505766 L87.7498805,72.1505766 C87.7498805,72.1505766 88.169455,64.6214111 88.169455,64.6214111 C88.169455,64.6214111 87.9892046,61.2739036 87.9892046,61.2739036 C87.9892046,61.2739036 85.6595817,56.433953 85.6595817,56.433953 Z M43.3492069,59.182393 C43.3492069,59.182393 26.4965513,69.343063 26.4965513,69.343063 L26.4965513,69.343063 L26.4965513,70.6566189 C26.4965513,70.6566189 27.6918084,71.5530238 27.6918084,71.5530238 C27.6918084,71.5530238 29.3648048,70.9553195 29.3648048,70.9553195 C29.3648048,70.9553195 43.4084321,60.6172771 43.4084321,60.6172771 C43.4084321,60.6172771 43.3492069,59.182393 43.3492069,59.182393 Z M72.631567,67.5487383 C72.0340142,67.5487383 71.6745737,67.7883653 71.6745737,68.3860696 C71.6745737,69.0442108 72.0340142,69.343063 72.631567,69.343063 C73.2292713,69.343063 73.527972,69.0442108 73.527972,68.3860696 C73.527972,67.7883653 73.2292713,67.5487383 72.631567,67.5487383 Z M102.630385,54.5213296 C102.630385,54.5213296 102.869709,56.2550658 102.869709,56.2550658 C103.22718,56.2550658 105.081184,57.0316573 108.666501,58.5256151 C108.666501,58.5256151 120.797808,66.9511855 120.797808,66.9511855 C120.797808,66.9511855 123.725741,67.9081789 123.725741,67.9081789 C123.725741,67.9081789 124.622449,67.310626 124.622449,67.310626 C124.622449,67.310626 107.341106,55.6573185 106.487707,55.0818465 L106.455026,55.0598087 C106.455026,55.0598087 103.176012,54.5981496 102.690233,54.5297557 Z M44.3639107,52.8483331 C44.3639107,52.8483331 23.986375,63.7250062 23.986375,63.7250062 C23.986375,63.7250062 24.3443008,64.8595235 24.3443008,64.8595235 C24.3443008,64.8595235 29.7834705,62.7087877 29.7834705,62.7087877 C29.7834705,62.7087877 43.3492069,54.7609566 43.3492069,54.7609566 C43.3492069,54.7609566 44.3639107,52.8483331 44.3639107,52.8483331 Z M73.1685315,57.2697696 C72.5709787,57.2697696 72.2721265,57.5686217 72.2721265,58.0478757 C72.2721265,58.7046537 72.5709787,58.9442807 73.1685315,58.9442807 C73.7070106,58.9442807 73.9451229,58.7046537 73.9451229,58.0478757 C73.9451229,57.5686217 73.7070106,57.2697696 73.1685315,57.2697696 Z M86.7350253,19.1431734 L82.1333384,19.1431734 C82.1333384,19.1431734 76.0615867,22.9374343 75.4833247,23.2987925 L75.4392322,23.326346 C75.4392322,23.326346 74.7232291,26.5540401 74.7232291,26.5540401 L74.7232291,26.5540401 L73.048718,26.5540401 C73.048718,26.5540401 69.9423521,23.8648252 69.9423521,23.8648252 C69.9423521,23.8648252 67.4321759,24.2833394 67.4321759,24.2833394 C67.4321759,24.2833394 66.1763304,25.6576351 66.1763304,25.6576351 C66.1763304,25.6576351 66.4751826,29.4221421 66.4751826,29.4221421 C66.4751826,29.4221421 68.9262852,32.6498362 68.9262852,32.6498362 C68.9262852,32.6498362 67.0727354,40.9555931 67.0727354,40.9555931 C67.0727354,40.9555931 66.1763304,41.1344803 66.1763304,41.1344803 C66.1763304,41.1344803 66.0580316,45.3783928 66.0580316,45.3783928 C66.0580316,45.3783928 72.4135447,49.3442539 73.0047553,49.7131712 L73.048718,49.7406041 C74.3637886,50.5777839 74.9613414,50.6960827 74.9613414,49.9802311 C74.9613414,49.9802311 75.2228759,45.5866371 75.2566223,45.0197217 L75.2601935,44.9597271 C75.2601935,44.9597271 71.6153486,41.9718116 71.6153486,41.9718116 L71.6153486,41.9718116 L71.6153486,40.7765545 C71.6153486,40.7765545 74.3637886,39.103558 74.3637886,39.103558 C74.3637886,39.103558 81.4759546,38.9246709 81.4759546,38.9246709 C81.4759546,38.9246709 88.169455,40.1790016 88.169455,40.1790016 C89.1252366,39.999963 89.6629584,39.6420372 89.5432963,39.103558 C89.5432963,39.103558 88.6465884,37.4305616 88.6465884,37.4305616 L88.6465884,37.4305616 L87.9892046,37.4305616 C88.3481907,36.235456 88.7071768,35.7575652 88.9465009,35.7575652 C88.9465009,35.7575652 90.4400042,35.0401989 90.4400042,35.0401989 C90.4400042,35.0401989 90.0810181,34.4426461 90.0810181,34.4426461 C90.0810181,34.4426461 89.2448986,34.5017197 89.2448986,34.5017197 C89.2448986,34.5017197 87.1530851,35.0401989 87.1530851,35.0401989 C87.1530851,35.0401989 86.9743494,33.6660546 86.9743494,33.6660546 C86.9743494,33.6660546 88.5269264,32.0522833 88.5269264,32.0522833 C88.5269264,32.0522833 90.858064,31.5728778 90.858064,31.5728778 L90.858064,31.5728778 L90.858064,30.8570262 C90.858064,30.8570262 89.4236343,29.2432549 89.4236343,29.2432549 C89.4236343,29.2432549 90.858064,28.6455507 90.858064,28.6455507 C90.858064,28.6455507 92.6514798,27.3306315 92.6514798,27.3306315 C92.6514798,27.3306315 90.5596663,25.4785965 90.5596663,25.4785965 C90.5596663,25.4785965 87.7498805,26.0761493 87.7498805,26.0761493 C87.7498805,26.0761493 83.1481937,25.2981946 83.1481937,25.2981946 C83.1481937,25.2981946 81.953088,23.326346 81.953088,23.326346 C81.953088,23.326346 86.9743494,21.0557968 86.9743494,21.0557968 C86.9743494,21.0557968 87.5711448,20.2792053 87.5711448,20.2792053 C87.5711448,20.2792053 86.7350253,19.1431734 86.7350253,19.1431734 L86.7350253,19.1431734 Z M67.6702882,25.2389694 C67.6702882,25.2389694 70.3595031,25.2981946 70.3595031,25.2981946 C70.3595031,25.2981946 71.2574228,27.3306315 71.2574228,27.3306315 C71.2574228,27.3306315 70.8387571,29.4221421 70.8387571,29.4221421 C70.8387571,29.4221421 69.9423521,29.482882 69.9423521,29.482882 C69.9423521,29.482882 69.0460987,28.4666635 69.0460987,28.4666635 C69.0460987,28.4666635 68.4483944,27.3897052 68.4483944,27.3897052 C68.4483944,27.3897052 67.4321759,27.5702585 67.4321759,27.5702585 C67.4321759,27.5702585 67.0136617,26.5540401 67.0136617,26.5540401 C67.0136617,26.5540401 67.6702882,25.2389694 67.6702882,25.2389694 Z M99.3484041,98.0563505 C100.341613,84.8700685 101.376205,71.1343582 101.376205,71.1343582 C101.376205,71.1343582 99.4631275,56.2550658 99.4631275,56.2550658 C99.4631275,56.2550658 96.7745185,53.9237767 96.7745185,53.9237767 C98.4467576,58.9442807 99.2253181,64.1421571 99.0450677,69.4613618 C99.0450677,69.4613618 98.4724214,78.2816935 97.7966988,88.6896849 L97.7921738,88.7432895 L97.7470785,89.4539737 C96.8010573,104.025309 95.6779484,121.324282 95.6395017,121.916467 L95.6384865,121.932104 L95.6384865,121.932104 L92.3530821,121.932104 C92.3530821,121.932104 94.2040568,90.3773766 94.2040568,90.3773766 C93.4285257,91.5137115 92.6514798,92.0514333 91.9335076,92.0514333 C91.9335076,92.0514333 90.5596663,101.192704 90.5596663,101.192704 L90.5596663,101.192704 L90.5596663,121.932104 L90.5596663,121.932104 L85.4793313,121.932104 C85.4793313,121.932104 86.2563772,91.6318588 86.2563772,91.6318588 C86.2563772,91.6318588 82.7316486,90.1377495 82.7316486,90.1377495 C82.7316486,90.1377495 81.6546903,121.932104 81.6546903,121.932104 L81.6546903,121.932104 L76.6950777,121.932104 C76.6950777,121.932104 79.7437331,56.433953 79.7437331,56.433953 C79.7437331,56.433953 77.9494084,54.5805547 77.9494084,54.5805547 C77.9494084,54.5805547 76.2171869,56.8526186 76.2171869,56.8526186 C76.2171869,56.8526186 72.0340142,121.932104 72.0340142,121.932104 L72.0340142,121.932104 L66.1763304,121.932104 C66.1763304,121.932104 70.5400564,55.537548 70.5400564,55.537548 C70.5400564,55.537548 67.2532887,56.8526186 67.2532887,56.8526186 C67.2532887,56.8526186 62.0537461,121.932104 62.0537461,121.932104 L62.0537461,121.932104 L58.0496121,121.932104 C58.0496121,121.932104 57.75076,112.968054 57.75076,112.968054 C57.75076,112.968054 58.7238413,106.153744 58.8187761,105.488933 L58.8262036,105.436919 C58.8262036,105.436919 60.7979007,57.0907309 60.7979007,57.0907309 L60.7975754,57.074611 C60.7928755,56.8417145 60.738827,54.1634038 60.738827,54.1634038 C60.738827,54.1634038 60.3807497,53.1471853 60.3807497,53.1471853 C60.3807497,53.1471853 59.6633834,54.1634038 59.6633834,54.1634038 C58.4682778,59.0033544 57.6916863,62.7087877 57.4520593,65.218964 C56.9741685,69.5221016 56.4964292,79.2625912 55.95795,94.3204678 C55.95795,94.3204678 54.2243653,121.932104 54.2243653,121.932104 L54.2243653,121.932104 L50.2808196,121.932104 C50.2808196,121.932104 51.5366651,112.72873 51.5366651,112.72873 C51.5366651,112.72873 53.4477738,66.9511855 53.4477738,66.9511855 C53.4477738,66.9511855 54.6430309,55.537548 54.6430309,55.537548 C54.6430309,55.537548 51.9762539,59.0418187 51.6321536,59.4939826 L51.5957387,59.5418335 C51.5957387,59.5418335 50.9375975,63.3063405 50.9375975,63.3063405 C50.9375975,63.3063405 51.3561117,68.3860696 51.3561117,68.3860696 C51.5957387,71.4332103 51.5366651,78.4254114 50.9375975,89.2413446 C50.9375975,89.2413446 49.8621539,109.620546 49.8621539,109.620546 C49.8621539,109.620546 48.069344,106.810761 48.069344,106.810761 L48.069344,106.810761 L48.069344,64.2619706 C47.5916047,62.4099356 47.5916047,59.4812452 48.1891575,55.537548 C48.1891575,55.537548 46.1567206,58.3465764 46.1567206,58.3465764 C46.1567206,58.3465764 45.4999426,81.3542533 45.4999426,81.3542533 C45.4999426,81.3542533 47.5323796,94.7400423 47.5323796,94.7400423 C47.5323796,94.7400423 47.1729391,103.705607 47.1729391,103.705607 C45.3210555,103.943416 43.3492069,105.077933 41.077143,106.931937 C41.077143,106.931937 38.1498158,106.632025 38.1498158,106.632025 C38.1498158,106.632025 34.1455303,102.328736 34.1455303,102.328736 C24.9420051,95.2777641 19.862276,91.0335486 18.9067974,89.5401967 C18.9067974,89.5401967 15.5608046,83.265362 15.5608046,83.265362 C15.5608046,83.265362 13.5875928,76.3337493 13.5875928,76.3337493 C13.5875928,76.3337493 13.7074063,74.6607529 13.7074063,74.6607529 C13.7074063,74.6607529 14.4839977,73.6445344 14.4839977,73.6445344 C17.2930261,73.1667951 19.5635754,72.1505766 21.1773467,70.4169919 C21.1773467,70.4169919 19.6833889,68.1464426 19.6833889,68.1464426 C19.6833889,68.1464426 18.6686851,67.967404 18.6686851,67.967404 C18.6686851,67.967404 11.9751847,71.731911 11.9751847,71.731911 C11.9751847,71.731911 7.97105071,75.5571579 7.97105071,75.5571579 C7.97105071,75.5571579 6.95483224,77.5290064 6.95483224,77.5290064 C6.95483224,77.5290064 6.77579361,81.1736999 6.77579361,81.1736999 C6.77579361,81.1736999 7.55238506,84.3421688 7.55238506,84.3421688 C9.8229343,88.4647531 13.8862935,92.8269644 19.6833889,97.430166 C22.9109314,99.7597889 26.0780371,101.971264 29.1857662,103.76468 C32.4725339,105.674729 35.3407874,107.528733 37.6720765,109.322149 C37.6720765,109.322149 41.6746958,111.233712 41.6746958,111.233712 L41.6746958,111.233712 L48.069344,111.233712 C49.0264888,112.72873 49.4434883,114.222233 49.4434883,115.833884 C49.5042281,117.925697 49.1447876,119.958437 48.3681962,121.932104 L48.3681962,121.932104 L43.168805,121.932104 C43.168805,121.932104 44.6627628,117.6273 44.6627628,117.6273 C44.6627628,117.6273 42.5711008,115.237088 42.5711008,115.237088 C33.2491253,109.620546 23.8665615,103.943416 14.4839977,98.1466235 C14.4839977,98.1466235 7.37334642,90.9154013 7.37334642,90.9154013 C7.37334642,90.9154013 3.19017376,82.7283975 3.19017376,82.7283975 C3.19017376,82.7283975 3.3692124,76.752415 3.3692124,76.752415 C3.3692124,76.752415 5.46072299,73.1667951 5.46072299,73.1667951 C5.46072299,73.1667951 29.1857662,57.7490236 29.1857662,57.7490236 C29.1857662,57.7490236 45.4999426,49.3826783 45.4999426,49.3826783 C45.4999426,49.3826783 58.8867919,47.4700548 58.8867919,47.4700548 C58.8867919,47.4700548 63.4280419,43.884435 63.4280419,43.884435 L63.4280419,43.884435 L64.2652217,43.884435 L64.2652217,43.884435 L64.2652217,40.7765545 C64.2652217,40.7765545 62.4724118,39.103558 62.4724118,39.103558 C62.4724118,39.103558 58.8867919,34.0239804 58.8867919,34.0239804 C58.8867919,34.0239804 54.8826579,19.3828004 54.8826579,19.3828004 C54.8826579,19.3828004 56.7952813,14.1834092 56.7952813,14.1834092 C58.2286507,13.7647436 59.4844962,12.2115607 60.7979007,9.52234579 C60.7979007,9.52234579 64.5640738,7.48990886 64.5640738,7.48990886 C64.5640738,7.48990886 67.4321759,5.16013449 67.4321759,5.16013449 C67.4321759,5.16013449 72.4511652,4.74162031 72.4511652,4.74162031 C72.4511652,4.74162031 78.3679226,3.48728954 78.3679226,3.48728954 C81.5956166,3.78599022 83.7465038,4.44276817 85.0612715,5.57728543 C85.0612715,5.57728543 89.2448986,5.39839826 89.2448986,5.39839826 C89.2448986,5.39839826 90.4400042,6.4752051 90.4400042,6.4752051 C90.4400042,6.4752051 91.649742,10.1044183 91.8916895,10.8302609 L91.9335076,10.9557152 C90.5596663,13.8254834 89.9007677,15.5575535 90.0219445,16.2749198 C90.0219445,16.2749198 90.858064,19.2037617 90.858064,19.2037617 C91.5154478,21.1150219 91.6351099,22.9091951 91.5745215,24.462378 C91.5745215,24.462378 94.4433809,26.8527407 94.4433809,26.8527407 C94.4433809,26.8527407 94.8614407,27.9874095 94.8614407,27.9874095 C94.8614407,27.9874095 94.2631305,29.2432549 94.2631305,29.2432549 C94.2631305,29.2432549 92.3530821,30.2594734 92.3530821,30.2594734 C92.3530821,31.6336177 92.5318178,33.0685018 92.9498775,34.5017197 C92.9498775,34.5017197 91.5154478,36.9513076 91.5154478,36.9513076 C91.5154478,36.9513076 91.3367121,38.2663782 91.3367121,38.2663782 C91.994096,39.0444844 92.3530821,39.9408893 92.3530821,40.7174808 C92.2319053,41.6729594 91.1579764,42.5102907 88.9465009,43.2276571 C84.8825358,44.3029492 84.5235497,45.1993541 87.9301309,46.1549842 C87.9301309,46.1549842 92.5318178,47.8279807 92.5318178,47.8279807 C92.5318178,47.8279807 93.6072614,48.545347 93.6072614,48.545347 C97.8484474,49.7406041 101.076293,50.8766361 103.407431,52.0111533 C103.407431,52.0111533 117.033755,58.1661745 117.033755,58.1661745 C117.033755,58.1661745 127.729118,65.6376296 127.729118,65.6376296 C127.729118,65.6376296 130.060255,68.5649568 130.060255,68.5649568 C130.060255,68.5649568 138.845569,76.1548621 138.845569,76.1548621 C138.845569,76.1548621 145.955615,86.3140174 145.955615,86.3140174 C145.955615,86.3140174 146.734175,89.8996372 146.734175,89.8996372 C146.734175,89.8996372 137.111227,99.6401268 137.111227,99.6401268 C118.407597,109.979532 107.769793,116.314047 105.081184,118.645184 C105.081184,118.645184 100.718822,119.84029 100.718822,119.84029 C100.718822,119.84029 100.538571,121.932104 100.538571,121.932104 L100.538571,121.932104 L97.5500497,121.932104 C97.5500497,121.932104 98.3952475,110.710882 99.2911571,98.8163863 L99.3221738,98.3992895 Z" id="Combined-Shape" fill="#161413"></path>
        </g>
    </g>
</svg>